<mxfile modified="2023-11-23T08:13:55.134Z" host="app.diagrams.net" agent="Mozilla/5.0 (Windows NT 10.0; Win64; x64) AppleWebKit/537.36 (KHTML, like Gecko) Chrome/109.0.0.0 Safari/537.36" etag="B6HeDP9PAERJmxO1knjW" version="22.1.3" type="github">
  <diagram id="Ht1M8jgEwFfnCIfOTk4-" name="Page-1">
    <mxGraphModel dx="1464" dy="747" grid="0" gridSize="10" guides="1" tooltips="1" connect="1" arrows="1" fold="1" page="1" pageScale="1" pageWidth="1169" pageHeight="827" math="0" shadow="0">
      <root>
        <mxCell id="0" />
        <mxCell id="1" parent="0" />
        <mxCell id="4OxPXLMrF-396bhJMdrH-27" value="Actors" style="swimlane;html=1;startSize=20;" vertex="1" parent="1">
          <mxGeometry x="542" y="38" width="189" height="822" as="geometry" />
        </mxCell>
        <mxCell id="4OxPXLMrF-396bhJMdrH-48" style="edgeStyle=orthogonalEdgeStyle;rounded=0;orthogonalLoop=1;jettySize=auto;html=1;" edge="1" parent="4OxPXLMrF-396bhJMdrH-27" source="4OxPXLMrF-396bhJMdrH-28">
          <mxGeometry relative="1" as="geometry">
            <mxPoint x="238" y="56.5" as="targetPoint" />
          </mxGeometry>
        </mxCell>
        <mxCell id="4OxPXLMrF-396bhJMdrH-28" value="&lt;font style=&quot;font-size: 11px;&quot;&gt;Request login&lt;/font&gt;" style="rounded=1;whiteSpace=wrap;html=1;shadow=0;labelBackgroundColor=none;strokeWidth=1;fontFamily=Verdana;fontSize=8;align=center;" vertex="1" parent="4OxPXLMrF-396bhJMdrH-27">
          <mxGeometry x="37" y="36" width="100" height="41" as="geometry" />
        </mxCell>
        <mxCell id="4OxPXLMrF-396bhJMdrH-51" style="edgeStyle=orthogonalEdgeStyle;rounded=0;orthogonalLoop=1;jettySize=auto;html=1;entryX=0.5;entryY=0;entryDx=0;entryDy=0;" edge="1" parent="4OxPXLMrF-396bhJMdrH-27" source="4OxPXLMrF-396bhJMdrH-29" target="4OxPXLMrF-396bhJMdrH-30">
          <mxGeometry relative="1" as="geometry" />
        </mxCell>
        <mxCell id="4OxPXLMrF-396bhJMdrH-29" value="&lt;span style=&quot;font-size: 11px;&quot;&gt;Receive state token&lt;/span&gt;" style="rounded=1;whiteSpace=wrap;html=1;shadow=0;labelBackgroundColor=none;strokeWidth=1;fontFamily=Verdana;fontSize=8;align=center;" vertex="1" parent="4OxPXLMrF-396bhJMdrH-27">
          <mxGeometry x="37" y="108" width="100" height="46" as="geometry" />
        </mxCell>
        <mxCell id="4OxPXLMrF-396bhJMdrH-30" value="&lt;span style=&quot;font-size: 11px;&quot;&gt;Get token&lt;/span&gt;" style="rounded=1;whiteSpace=wrap;html=1;shadow=0;labelBackgroundColor=none;strokeWidth=1;fontFamily=Verdana;fontSize=8;align=center;" vertex="1" parent="4OxPXLMrF-396bhJMdrH-27">
          <mxGeometry x="37" y="180" width="100" height="46" as="geometry" />
        </mxCell>
        <mxCell id="4OxPXLMrF-396bhJMdrH-56" style="edgeStyle=orthogonalEdgeStyle;rounded=0;orthogonalLoop=1;jettySize=auto;html=1;" edge="1" parent="4OxPXLMrF-396bhJMdrH-27" source="4OxPXLMrF-396bhJMdrH-31">
          <mxGeometry relative="1" as="geometry">
            <mxPoint x="87" y="332" as="targetPoint" />
          </mxGeometry>
        </mxCell>
        <mxCell id="4OxPXLMrF-396bhJMdrH-31" value="&lt;font style=&quot;font-size: 11px;&quot;&gt;Save&amp;nbsp; token in local storage&lt;/font&gt;" style="rounded=1;whiteSpace=wrap;html=1;shadow=0;labelBackgroundColor=none;strokeWidth=1;fontFamily=Verdana;fontSize=8;align=center;" vertex="1" parent="4OxPXLMrF-396bhJMdrH-27">
          <mxGeometry x="37" y="253" width="100" height="43" as="geometry" />
        </mxCell>
        <mxCell id="4OxPXLMrF-396bhJMdrH-32" value="&lt;font style=&quot;font-size: 11px;&quot;&gt;Send input request with token&lt;/font&gt;" style="rounded=1;whiteSpace=wrap;html=1;shadow=0;labelBackgroundColor=none;strokeWidth=1;fontFamily=Verdana;fontSize=8;align=center;" vertex="1" parent="4OxPXLMrF-396bhJMdrH-27">
          <mxGeometry x="40" y="342" width="100" height="41" as="geometry" />
        </mxCell>
        <mxCell id="4OxPXLMrF-396bhJMdrH-77" value="&lt;span style=&quot;font-size: 11px;&quot;&gt;Receive result&lt;/span&gt;" style="rounded=1;whiteSpace=wrap;html=1;shadow=0;labelBackgroundColor=none;strokeWidth=1;fontFamily=Verdana;fontSize=8;align=center;" vertex="1" parent="4OxPXLMrF-396bhJMdrH-27">
          <mxGeometry x="28" y="622" width="100" height="48" as="geometry" />
        </mxCell>
        <mxCell id="4OxPXLMrF-396bhJMdrH-33" value="Okta" style="swimlane;html=1;startSize=20;" vertex="1" parent="1">
          <mxGeometry x="732" y="37" width="214" height="823" as="geometry" />
        </mxCell>
        <mxCell id="4OxPXLMrF-396bhJMdrH-49" style="edgeStyle=orthogonalEdgeStyle;rounded=0;orthogonalLoop=1;jettySize=auto;html=1;" edge="1" parent="4OxPXLMrF-396bhJMdrH-33" source="4OxPXLMrF-396bhJMdrH-34">
          <mxGeometry relative="1" as="geometry">
            <mxPoint x="104" y="103" as="targetPoint" />
          </mxGeometry>
        </mxCell>
        <mxCell id="4OxPXLMrF-396bhJMdrH-34" value="&lt;font style=&quot;font-size: 11px;&quot;&gt;Handle request&lt;/font&gt;" style="rounded=1;whiteSpace=wrap;html=1;shadow=0;labelBackgroundColor=none;strokeWidth=1;fontFamily=Verdana;fontSize=8;align=center;" vertex="1" parent="4OxPXLMrF-396bhJMdrH-33">
          <mxGeometry x="54" y="39" width="100" height="42" as="geometry" />
        </mxCell>
        <mxCell id="4OxPXLMrF-396bhJMdrH-50" style="edgeStyle=orthogonalEdgeStyle;rounded=0;orthogonalLoop=1;jettySize=auto;html=1;" edge="1" parent="4OxPXLMrF-396bhJMdrH-33" source="4OxPXLMrF-396bhJMdrH-35">
          <mxGeometry relative="1" as="geometry">
            <mxPoint x="-52" y="127.5" as="targetPoint" />
          </mxGeometry>
        </mxCell>
        <mxCell id="4OxPXLMrF-396bhJMdrH-35" value="&lt;font style=&quot;font-size: 11px;&quot;&gt;Return state token&lt;/font&gt;" style="rounded=1;whiteSpace=wrap;html=1;shadow=0;labelBackgroundColor=none;strokeWidth=1;fontFamily=Verdana;fontSize=8;align=center;" vertex="1" parent="4OxPXLMrF-396bhJMdrH-33">
          <mxGeometry x="57" y="106" width="100" height="43" as="geometry" />
        </mxCell>
        <mxCell id="4OxPXLMrF-396bhJMdrH-53" style="edgeStyle=orthogonalEdgeStyle;rounded=0;orthogonalLoop=1;jettySize=auto;html=1;entryX=0.5;entryY=0;entryDx=0;entryDy=0;" edge="1" parent="4OxPXLMrF-396bhJMdrH-33" source="4OxPXLMrF-396bhJMdrH-36" target="4OxPXLMrF-396bhJMdrH-37">
          <mxGeometry relative="1" as="geometry" />
        </mxCell>
        <mxCell id="4OxPXLMrF-396bhJMdrH-36" value="&lt;span style=&quot;font-size: 11px;&quot;&gt;Handle request&lt;/span&gt;" style="rounded=1;whiteSpace=wrap;html=1;shadow=0;labelBackgroundColor=none;strokeWidth=1;fontFamily=Verdana;fontSize=8;align=center;" vertex="1" parent="4OxPXLMrF-396bhJMdrH-33">
          <mxGeometry x="57" y="182" width="100" height="43" as="geometry" />
        </mxCell>
        <mxCell id="4OxPXLMrF-396bhJMdrH-55" style="edgeStyle=orthogonalEdgeStyle;rounded=0;orthogonalLoop=1;jettySize=auto;html=1;" edge="1" parent="4OxPXLMrF-396bhJMdrH-33" source="4OxPXLMrF-396bhJMdrH-37">
          <mxGeometry relative="1" as="geometry">
            <mxPoint x="-52" y="275.5" as="targetPoint" />
          </mxGeometry>
        </mxCell>
        <mxCell id="4OxPXLMrF-396bhJMdrH-37" value="&lt;font style=&quot;font-size: 11px;&quot;&gt;Return&amp;nbsp; token&lt;/font&gt;" style="rounded=1;whiteSpace=wrap;html=1;shadow=0;labelBackgroundColor=none;strokeWidth=1;fontFamily=Verdana;fontSize=8;align=center;" vertex="1" parent="4OxPXLMrF-396bhJMdrH-33">
          <mxGeometry x="57" y="254" width="100" height="43" as="geometry" />
        </mxCell>
        <mxCell id="4OxPXLMrF-396bhJMdrH-38" value="AppSync/GraphQL" style="swimlane;html=1;startSize=20;" vertex="1" parent="1">
          <mxGeometry x="945" y="38" width="480" height="822" as="geometry" />
        </mxCell>
        <mxCell id="4OxPXLMrF-396bhJMdrH-42" value="authorize cache info valid?" style="rhombus;whiteSpace=wrap;html=1;" vertex="1" parent="4OxPXLMrF-396bhJMdrH-38">
          <mxGeometry x="60" y="322.5" width="80" height="80" as="geometry" />
        </mxCell>
        <mxCell id="4OxPXLMrF-396bhJMdrH-43" value="&lt;font style=&quot;font-size: 11px;&quot;&gt;Handle request&lt;/font&gt;" style="rounded=1;whiteSpace=wrap;html=1;shadow=0;labelBackgroundColor=none;strokeWidth=1;fontFamily=Verdana;fontSize=8;align=center;" vertex="1" parent="4OxPXLMrF-396bhJMdrH-38">
          <mxGeometry x="47.5" y="432" width="100" height="43" as="geometry" />
        </mxCell>
        <mxCell id="4OxPXLMrF-396bhJMdrH-44" value="&lt;font style=&quot;font-size: 11px;&quot;&gt;Return result&lt;/font&gt;" style="rounded=1;whiteSpace=wrap;html=1;shadow=0;labelBackgroundColor=none;strokeWidth=1;fontFamily=Verdana;fontSize=8;align=center;" vertex="1" parent="4OxPXLMrF-396bhJMdrH-38">
          <mxGeometry x="47.5" y="502" width="100" height="43" as="geometry" />
        </mxCell>
        <mxCell id="4OxPXLMrF-396bhJMdrH-81" style="edgeStyle=orthogonalEdgeStyle;rounded=0;orthogonalLoop=1;jettySize=auto;html=1;entryX=0.25;entryY=0;entryDx=0;entryDy=0;" edge="1" parent="4OxPXLMrF-396bhJMdrH-38" source="4OxPXLMrF-396bhJMdrH-47" target="4OxPXLMrF-396bhJMdrH-67">
          <mxGeometry relative="1" as="geometry" />
        </mxCell>
        <mxCell id="4OxPXLMrF-396bhJMdrH-83" style="edgeStyle=orthogonalEdgeStyle;rounded=0;orthogonalLoop=1;jettySize=auto;html=1;" edge="1" parent="4OxPXLMrF-396bhJMdrH-38" source="4OxPXLMrF-396bhJMdrH-47" target="4OxPXLMrF-396bhJMdrH-68">
          <mxGeometry relative="1" as="geometry" />
        </mxCell>
        <mxCell id="4OxPXLMrF-396bhJMdrH-47" value="is authorize ?" style="rhombus;whiteSpace=wrap;html=1;" vertex="1" parent="4OxPXLMrF-396bhJMdrH-38">
          <mxGeometry x="57.5" y="572" width="80" height="80" as="geometry" />
        </mxCell>
        <mxCell id="4OxPXLMrF-396bhJMdrH-66" value="&lt;font style=&quot;font-size: 11px;&quot;&gt;Return result&lt;/font&gt;" style="rounded=1;whiteSpace=wrap;html=1;shadow=0;labelBackgroundColor=none;strokeWidth=1;fontFamily=Verdana;fontSize=8;align=center;" vertex="1" parent="4OxPXLMrF-396bhJMdrH-38">
          <mxGeometry x="110" y="762" width="80" height="43" as="geometry" />
        </mxCell>
        <mxCell id="4OxPXLMrF-396bhJMdrH-82" style="edgeStyle=orthogonalEdgeStyle;rounded=0;orthogonalLoop=1;jettySize=auto;html=1;entryX=0.5;entryY=0;entryDx=0;entryDy=0;" edge="1" parent="4OxPXLMrF-396bhJMdrH-38" source="4OxPXLMrF-396bhJMdrH-67" target="4OxPXLMrF-396bhJMdrH-66">
          <mxGeometry relative="1" as="geometry" />
        </mxCell>
        <mxCell id="4OxPXLMrF-396bhJMdrH-67" value="&lt;font style=&quot;font-size: 11px;&quot;&gt;Handle request&lt;/font&gt;" style="rounded=1;whiteSpace=wrap;html=1;shadow=0;labelBackgroundColor=none;strokeWidth=1;fontFamily=Verdana;fontSize=8;align=center;" vertex="1" parent="4OxPXLMrF-396bhJMdrH-38">
          <mxGeometry x="115" y="689" width="70" height="43" as="geometry" />
        </mxCell>
        <mxCell id="4OxPXLMrF-396bhJMdrH-68" value="&lt;font style=&quot;font-size: 11px;&quot;&gt;Return authorize error&lt;/font&gt;" style="rounded=1;whiteSpace=wrap;html=1;shadow=0;labelBackgroundColor=none;strokeWidth=1;fontFamily=Verdana;fontSize=8;align=center;" vertex="1" parent="4OxPXLMrF-396bhJMdrH-38">
          <mxGeometry x="15" y="689" width="80" height="43" as="geometry" />
        </mxCell>
        <mxCell id="4OxPXLMrF-396bhJMdrH-75" style="edgeStyle=orthogonalEdgeStyle;rounded=0;orthogonalLoop=1;jettySize=auto;html=1;" edge="1" parent="4OxPXLMrF-396bhJMdrH-38">
          <mxGeometry relative="1" as="geometry">
            <mxPoint x="99.5" y="432" as="targetPoint" />
            <mxPoint x="99.5" y="396" as="sourcePoint" />
          </mxGeometry>
        </mxCell>
        <mxCell id="4OxPXLMrF-396bhJMdrH-76" style="edgeStyle=orthogonalEdgeStyle;rounded=0;orthogonalLoop=1;jettySize=auto;html=1;" edge="1" parent="4OxPXLMrF-396bhJMdrH-38">
          <mxGeometry relative="1" as="geometry">
            <mxPoint x="99.5" y="511" as="targetPoint" />
            <mxPoint x="99.5" y="475" as="sourcePoint" />
          </mxGeometry>
        </mxCell>
        <mxCell id="4OxPXLMrF-396bhJMdrH-89" value="Y" style="text;html=1;align=center;verticalAlign=middle;resizable=0;points=[];autosize=1;strokeColor=none;fillColor=none;" vertex="1" parent="4OxPXLMrF-396bhJMdrH-38">
          <mxGeometry x="105" y="642" width="30" height="30" as="geometry" />
        </mxCell>
        <mxCell id="4OxPXLMrF-396bhJMdrH-143" value="" style="shape=image;verticalLabelPosition=bottom;labelBackgroundColor=default;verticalAlign=top;aspect=fixed;imageAspect=0;image=data:image/png,iVBORw0KGgoAAAANSUhEUgAABRMAAAAcCAYAAADyUShbAAAAAXNSR0IArs4c6QAAAARnQU1BAACxjwv8YQUAAAAJcEhZcwAADsMAAA7DAcdvqGQAAAnESURBVHhe7d1LaBzZFcbx01kZAg4TY08bNBhBNl5MDJ6NWmAIAu9CYCQ0Qd0YM3ipnfCsJEtYj51RVlpkYWalFlhIXmaIQbIYUGs14DgbE0PHjIgFWSUQIysed+reurfqVKm6q7v1iB7/H1xU3S6r6yUjPp9zb6EREAAAAAAAAADIUVhfXydMBAAAAAAAAJCrMDU11Xj48KF7CQAAAAAAAADZbJi4sbEh6+vr7i0AAAAAAAAASCoUCvIztw0AAAAAAAAALREmAgAAAAAAAGgLYSIAAAAAAACAtjQNEz9+/NjRAAAAAAAAAHC2NV2A5cOHD/KHPz5xr/J9M1p2WwAAAAAAAADOmrYWYPn9737Tcvz2dp/bEwAAAEevJnPBL3HmF7nCTM29d9btSPUrd85fVYNXx2BrLvy8YAwtHcsnRnaWhqLPnttybwIAAJwQuWHiLy7+vOUAAADwajMu8LFjTo436lIhW2IMSXXb7XKSqfAqHsd9DTu0XZUhdbzHHboBAADg+DUNExuNhv2aNT9iegAAAJgwb23SbVoTsnZMVVVhJVd/8Ikis7WG/T3Gjtps8M6qVMaOqZqtK67qrmSPXjb9sf+4KIPBGfUfIKSLwt0jqubb+X4luLqx1adrB/scFU7+3yvy+saj52hlpOjePExx+J2+v8WRleizx2kCAgAAJ0xumFiv/73l2Nv7r90PAACcc1trNszTJp4dQ13ddlVGyy7SGl6Uezp8sYHQpphI8aTaWRqVyrLZGpTFH8elZN8N9JRloTpoN1fLV09gu+uOrD3VUWJgeUXWTkMVKAAAALrWNEz86aew4vDVq1fyxRc3m469vT27HwAAON9qz1yUOLwoi9Phpkyupdp0k3PfVRNt0akKLdX2O7eUbKftrP23JONPylLULbmJuQb3z8cXz1lnWqTVn6t9ElLtvn7kB4A1eRwFoUMy0BNuesVbQxLGiXnBbPIYh5b+Yl/3+0rR5YpcTRxT6pzUaDu03F6TFRuCisxWTRWlsSor36euTpO5B+OWeHcvzX6fVaJKx4mS+/M2rndW5aaedzB7v9R9j76na4vXz5+7Jsk2/tTwx9nkWUg8s3afsJLWMGGx3if5/IX7hLLuW3qf1Jyaqfb5kxdKAwCA06ZpmOjblz/55SX57rs/y5+CkfWVykQAAGDCkUcuuBr8ckDKt30tYItW5+WK1G+HrZxvcyrwJp6KLNi2T19lOCH9PrzpGZChYftmIjTbF0L1lOV+VsipQjFz7MmG1lWpfDYqMq8+23yGCiNt8GNDMFNZGJ6PGZv+s1rZrssPblM+7019dqCnV266zf3BbKw2c9VVN4Zt3isjv5byE3UMw4vy1h1X2DZbtH/uj9UO2xIehnjtBE61b33wNysDI/E96LrV2VSR2tbuUNSuboJg955lrv+Yex7cMSefmzBwu2pC2ui838picHw2tMtatMZ8TxVkNlN64I7JDf/c2qrSeXecwXO2ovYxI7wPpmXdBYp2n7hidrD61u2rKlPTbAAZ3udof3u9zDPa5J5N9kvh2YDd1x/rROmUzCEKAABOrNww8crlT+XylU+Dr1fkcrCdfk2YCAAA4rnzBmXoVlGkbyAKSibmMyrLDNWSXBy5H++fUYE3O+YDpZLc8wFO1FJblPJ8HEJFomAxDk9KX/v9VMi5XY9Csfv75sYzAeGKlG3FYK/0+tDyZT08p23VYj193+0XMsGTDe5SlWHhcMcUfXb3TJjpKxBNyNT1HHv6nuW2p6v5MacHgrtSlIEv/X2pyOM2wsiumYDQB4w9vdF9/6HunrKtx3GwGj03wTMy5s5usn9/8KbC1kbD3+8cwX21gWVgsLrQ8u+U2gnXc+jwNnpOVUA+Ucqo1p3elMaDMJ4s9vpYelXqhIkAAOAAcsPE3ffvZXc3GO/3wu3Ua9qcAQA479TceVGrbkkGfFVcW/PoZQR1TWSGIqoaLK4W80zllq8IiyvofGAWtWfbUKxDKgycvd3kb6uFPOLhAisVhnXl5SMVZm52vFBIsm03brvNpebH9Ofdfkv20dqp+1rPQenVAV9W8Ni1mszZBXMCmdc9tbK437drO1J/6TaHg58Vt2n0/io6K0JCAABwLHLDxH/9+z8tx3vCRAAAzjfVJhxXA6r5+iRjHr0jFK+EG7a2hnzQoirobNuwr7AblMWvO44SD063MWeFqLoNOivsXF6NwszMirtm3Lx+9h6Z6jV7vdpfqCYKYAPR3Ia6TbhFS/bpZ9qoffA6K5uu8s8L5ztMrSzu2rEBAADOghZhYria819f/6Pl+Nubf9r9AADA+RS3OKvwJBVO5c+jV5e6DySz5g5U9lWebc1lLsBhgsPez92m3Iyq1OKW6glZm3EVdhmLn7TlwNVuWW3bscS1zap8tEFgfJ0zW10z6Lb0zkNU1eKcaA/WVaGqnfeg1ZcdatrOq6pIb/Z2VsGpNV1929JVuqmVxQ9EPcvLwc+K2zTqr6OzSlZiAgAAHJGmYeKlS5/IN6PltgcAADiP9GrE6fCk/Vbn2oyv9MoJt5rMURiuhptaWGJrTs0leE+FPvFxTUy6+rJobr0O9ZRlwQVoq+XRxOebFuJ2KgWLIwuuglK1YxvqXFvPhViS8ajyTS1ME4haYFPXPzNw01WQLewsPXL3av91y2x1VtWXq691DJZB7dt1q3TfvagiNZ6vc0eq8+6opze7n1cyd57E7NAvDsC1uLW/nUVr9Hyfj3x4HjwjfuGj2VqLxVsAAAAOUdMwEQAAIJeaO2//SsiiFp5Ylcq3qXBoX0v0rGw2Wfwi3UprV7P17aV9464iLlzV1u5nhp2nznxPs7px8sjiYMaYlYEDVJDZtmq1qq7//LjNO08xXFnZBoJmxV/3Pey5Zh//PsE1iFZuNtfVrVicDCrD72sDzuiaqWs7tmJft6Yq77Kum15Ze/KRC1dLMu5XaTarC7vzy74+Khj1+6ZX5c4VXk97ftEzplZBTrUlt08FkoEwwHbXTh1n6YFvr4/v5ehT8zotOE6/cFB0nC0qS+28oGpVarO/WkW864AUAACgQ4WpqanGxsaGrK+vu7cAAACOiplvLgx2EqvyZjGrILuFK0z79KGGJep7m4Cp04VLAAAAgPPI/IcmlYkAAODciRcQGZShWwSJAAAAQLsIEwEAwPmi5pnT8y4CAAAAyEebMwAAAAAAAIBctDkDAAAAAAAAaFvh7t27jefPn0ulUnFvATiL3rx5Y79eu3bNfgVwOPjZAnCS8G8SgKPEvzHA+Xb9+nW5c+eOFG7cuNF48eKFexsAAADAaXXhwgXZ3d11rwAAAA7HxYsX7Xj37p38D3bHOVfuzRMAAAAAAElFTkSuQmCC;" vertex="1" parent="4OxPXLMrF-396bhJMdrH-38">
          <mxGeometry x="-405" y="-17.759999999999998" width="824" height="17.76" as="geometry" />
        </mxCell>
        <mxCell id="4OxPXLMrF-396bhJMdrH-39" value="Authorization Lamda Function" style="swimlane;html=1;startSize=20;" vertex="1" parent="1">
          <mxGeometry x="1160" y="38" width="268" height="822" as="geometry" />
        </mxCell>
        <mxCell id="4OxPXLMrF-396bhJMdrH-151" style="edgeStyle=orthogonalEdgeStyle;rounded=0;orthogonalLoop=1;jettySize=auto;html=1;entryX=0.25;entryY=0;entryDx=0;entryDy=0;" edge="1" parent="4OxPXLMrF-396bhJMdrH-39" source="4OxPXLMrF-396bhJMdrH-46" target="4OxPXLMrF-396bhJMdrH-149">
          <mxGeometry relative="1" as="geometry" />
        </mxCell>
        <mxCell id="4OxPXLMrF-396bhJMdrH-46" value="&lt;font style=&quot;font-size: 11px;&quot;&gt;handle authorize with Okta&lt;/font&gt;" style="rounded=1;whiteSpace=wrap;html=1;shadow=0;labelBackgroundColor=none;strokeWidth=1;fontFamily=Verdana;fontSize=8;align=center;" vertex="1" parent="4OxPXLMrF-396bhJMdrH-39">
          <mxGeometry x="16" y="468" width="100" height="43" as="geometry" />
        </mxCell>
        <mxCell id="4OxPXLMrF-396bhJMdrH-147" style="edgeStyle=orthogonalEdgeStyle;rounded=0;orthogonalLoop=1;jettySize=auto;html=1;entryX=0.5;entryY=0;entryDx=0;entryDy=0;" edge="1" parent="4OxPXLMrF-396bhJMdrH-39" source="4OxPXLMrF-396bhJMdrH-145" target="4OxPXLMrF-396bhJMdrH-46">
          <mxGeometry relative="1" as="geometry" />
        </mxCell>
        <mxCell id="4OxPXLMrF-396bhJMdrH-148" style="edgeStyle=orthogonalEdgeStyle;rounded=0;orthogonalLoop=1;jettySize=auto;html=1;" edge="1" parent="4OxPXLMrF-396bhJMdrH-39" source="4OxPXLMrF-396bhJMdrH-145" target="4OxPXLMrF-396bhJMdrH-146">
          <mxGeometry relative="1" as="geometry" />
        </mxCell>
        <mxCell id="4OxPXLMrF-396bhJMdrH-145" value="token start with &quot;Bear&quot;?" style="rhombus;whiteSpace=wrap;html=1;" vertex="1" parent="4OxPXLMrF-396bhJMdrH-39">
          <mxGeometry x="67" y="322" width="123" height="80" as="geometry" />
        </mxCell>
        <mxCell id="4OxPXLMrF-396bhJMdrH-150" style="edgeStyle=orthogonalEdgeStyle;rounded=0;orthogonalLoop=1;jettySize=auto;html=1;entryX=0.75;entryY=0;entryDx=0;entryDy=0;" edge="1" parent="4OxPXLMrF-396bhJMdrH-39" source="4OxPXLMrF-396bhJMdrH-146" target="4OxPXLMrF-396bhJMdrH-149">
          <mxGeometry relative="1" as="geometry" />
        </mxCell>
        <mxCell id="4OxPXLMrF-396bhJMdrH-146" value="&lt;font style=&quot;font-size: 11px;&quot;&gt;handle authorize with API key&lt;/font&gt;" style="rounded=1;whiteSpace=wrap;html=1;shadow=0;labelBackgroundColor=none;strokeWidth=1;fontFamily=Verdana;fontSize=8;align=center;" vertex="1" parent="4OxPXLMrF-396bhJMdrH-39">
          <mxGeometry x="150" y="471" width="100" height="43" as="geometry" />
        </mxCell>
        <mxCell id="4OxPXLMrF-396bhJMdrH-149" value="&lt;font style=&quot;font-size: 11px;&quot;&gt;Return authorize result&lt;/font&gt;" style="rounded=1;whiteSpace=wrap;html=1;shadow=0;labelBackgroundColor=none;strokeWidth=1;fontFamily=Verdana;fontSize=8;align=center;" vertex="1" parent="4OxPXLMrF-396bhJMdrH-39">
          <mxGeometry x="73" y="587" width="100" height="43" as="geometry" />
        </mxCell>
        <mxCell id="4OxPXLMrF-396bhJMdrH-52" style="edgeStyle=orthogonalEdgeStyle;rounded=0;orthogonalLoop=1;jettySize=auto;html=1;entryX=0;entryY=0.5;entryDx=0;entryDy=0;" edge="1" parent="1" source="4OxPXLMrF-396bhJMdrH-30" target="4OxPXLMrF-396bhJMdrH-36">
          <mxGeometry relative="1" as="geometry" />
        </mxCell>
        <mxCell id="4OxPXLMrF-396bhJMdrH-57" style="edgeStyle=orthogonalEdgeStyle;rounded=0;orthogonalLoop=1;jettySize=auto;html=1;entryX=0;entryY=0.5;entryDx=0;entryDy=0;" edge="1" parent="1" source="4OxPXLMrF-396bhJMdrH-32" target="4OxPXLMrF-396bhJMdrH-42">
          <mxGeometry relative="1" as="geometry" />
        </mxCell>
        <mxCell id="4OxPXLMrF-396bhJMdrH-78" style="edgeStyle=orthogonalEdgeStyle;rounded=0;orthogonalLoop=1;jettySize=auto;html=1;entryX=0.42;entryY=-0.038;entryDx=0;entryDy=0;entryPerimeter=0;" edge="1" parent="1" source="4OxPXLMrF-396bhJMdrH-44" target="4OxPXLMrF-396bhJMdrH-77">
          <mxGeometry relative="1" as="geometry" />
        </mxCell>
        <mxCell id="4OxPXLMrF-396bhJMdrH-84" style="edgeStyle=orthogonalEdgeStyle;rounded=0;orthogonalLoop=1;jettySize=auto;html=1;entryX=0.75;entryY=1;entryDx=0;entryDy=0;" edge="1" parent="1" source="4OxPXLMrF-396bhJMdrH-68" target="4OxPXLMrF-396bhJMdrH-77">
          <mxGeometry relative="1" as="geometry" />
        </mxCell>
        <mxCell id="4OxPXLMrF-396bhJMdrH-85" style="edgeStyle=orthogonalEdgeStyle;rounded=0;orthogonalLoop=1;jettySize=auto;html=1;entryX=0;entryY=1;entryDx=0;entryDy=0;" edge="1" parent="1" source="4OxPXLMrF-396bhJMdrH-66" target="4OxPXLMrF-396bhJMdrH-77">
          <mxGeometry relative="1" as="geometry" />
        </mxCell>
        <mxCell id="4OxPXLMrF-396bhJMdrH-86" value="Y" style="text;html=1;align=center;verticalAlign=middle;resizable=0;points=[];autosize=1;strokeColor=none;fillColor=none;" vertex="1" parent="1">
          <mxGeometry x="1045" y="438" width="30" height="30" as="geometry" />
        </mxCell>
        <mxCell id="4OxPXLMrF-396bhJMdrH-87" value="N" style="text;html=1;align=center;verticalAlign=middle;resizable=0;points=[];autosize=1;strokeColor=none;fillColor=none;" vertex="1" parent="1">
          <mxGeometry x="1095" y="378" width="30" height="30" as="geometry" />
        </mxCell>
        <mxCell id="4OxPXLMrF-396bhJMdrH-88" value="N" style="text;html=1;align=center;verticalAlign=middle;resizable=0;points=[];autosize=1;strokeColor=none;fillColor=none;" vertex="1" parent="1">
          <mxGeometry x="995" y="688" width="30" height="30" as="geometry" />
        </mxCell>
        <mxCell id="4OxPXLMrF-396bhJMdrH-61" style="edgeStyle=orthogonalEdgeStyle;rounded=0;orthogonalLoop=1;jettySize=auto;html=1;entryX=0;entryY=0.5;entryDx=0;entryDy=0;" edge="1" parent="1" source="4OxPXLMrF-396bhJMdrH-42" target="4OxPXLMrF-396bhJMdrH-145">
          <mxGeometry relative="1" as="geometry">
            <mxPoint x="1210" y="400.5" as="targetPoint" />
          </mxGeometry>
        </mxCell>
        <mxCell id="4OxPXLMrF-396bhJMdrH-152" style="edgeStyle=orthogonalEdgeStyle;rounded=0;orthogonalLoop=1;jettySize=auto;html=1;entryX=1;entryY=0.5;entryDx=0;entryDy=0;" edge="1" parent="1" source="4OxPXLMrF-396bhJMdrH-149" target="4OxPXLMrF-396bhJMdrH-47">
          <mxGeometry relative="1" as="geometry" />
        </mxCell>
      </root>
    </mxGraphModel>
  </diagram>
</mxfile>
